<svg xmlns="http://www.w3.org/2000/svg" viewBox="0 0 461.6 241.25"><defs><style>.cls-1{fill:none;stroke:#231f20;stroke-width:1.5px;}.cls-1,.cls-2{stroke-miterlimit:10;}.cls-2{fill:#030303;stroke:#030303;stroke-width:1.62px;}.cls-3{fill:#050606;}.cls-4{fill:#231f20;}</style></defs><g id="Layer_2" data-name="Layer 2"><g id="Layer_1-2" data-name="Layer 1"><path class="cls-1" d="M33.43,20.65A14.76,14.76,0,0,1,37.92,9.78,14.8,14.8,0,0,1,48.78,5.29h60a14.82,14.82,0,0,1,10.87,4.49,14.8,14.8,0,0,1,4.49,10.87v14A15.33,15.33,0,0,1,108.82,50H43.22V62.07H33.43Zm9.79,19.53h65.6a5.57,5.57,0,0,0,5.56-5.56v-14a5.58,5.58,0,0,0-5.56-5.57h-60a5.58,5.58,0,0,0-5.56,5.57Z"/><path class="cls-1" d="M141.62,46.71a5.58,5.58,0,0,0,5.56,5.56h60a5.58,5.58,0,0,0,5.56-5.56V5.29h9.79V46.71a15.33,15.33,0,0,1-15.35,15.36h-60a15.33,15.33,0,0,1-15.35-15.36V5.29h9.79Z"/><path class="cls-1" d="M323.28,62.07h-77.7a15.33,15.33,0,0,1-15.35-15.36V20.59a14.75,14.75,0,0,1,4.49-10.81,14.69,14.69,0,0,1,10.86-4.54h77.7V15h-77.7A5.6,5.6,0,0,0,240,20.59V46.71a5.58,5.58,0,0,0,5.56,5.56h77.7Z"/><path class="cls-1" d="M386,28.86l32.34,26.68-6.22,7.55L376.28,33.5l-35.56,17V62h-9.79V5.24h9.79V39.62L414,4.63l4.23,8.82Z"/><path class="cls-1" d="M121.78,81.89H50.11a13,13,0,0,0-1.94.26,8,8,0,0,0-2.3.92c-1.76,1.16-2.65,3-2.65,5.66a7.21,7.21,0,0,0,.26,1.94,6,6,0,0,0,.91,2.3c1.16,1.76,3,2.65,5.67,2.65h56.62a16.83,16.83,0,0,1,10.82,3.77c3.87,3.06,11,9.21,5.81,11.07-3,1.08-6.8,5.55-11,6-7.47.84-20,3.71-28.64,12.45H35v-9.8H99.68c2.62,0,9.8-3,12.66-2.65.78.09.77-1.41,1-2.29a8.55,8.55,0,0,0,.21-1.89q0-4-2.66-5.72a7.41,7.41,0,0,0-2.24-.91,11.73,11.73,0,0,0-1.94-.26H50.06q-8.27,0-12.91-5.81a16.94,16.94,0,0,1-3.72-10.82q0-8.31,5.81-12.9A16.9,16.9,0,0,1,50.06,72.1h71.72Z"/><path class="cls-1" d="M213,72.15h9.8v56.78H213V105.41H139.23v3.16l-9.8,1V72.15h9.8V95.62H213Z"/><path class="cls-1" d="M321.18,113.57a15.31,15.31,0,0,1-15.35,15.36h-60a15.33,15.33,0,0,1-15.35-15.36V87.45A15.42,15.42,0,0,1,245.79,72.1h60a15.4,15.4,0,0,1,15.35,15.35Zm-9.79-26.12a5.58,5.58,0,0,0-5.56-5.56h-60a5.58,5.58,0,0,0-5.56,5.56v26.12a5.57,5.57,0,0,0,5.56,5.56h60a5.57,5.57,0,0,0,5.56-5.56Z"/><path class="cls-1" d="M375.87,81.89h-47V72.1H432.65v9.79h-47v47h-9.8Z"/><path class="cls-2" d="M38.13,17.1A14.83,14.83,0,0,1,42.62,6.23,14.8,14.8,0,0,1,53.48,1.74h60.05a14.8,14.8,0,0,1,10.86,4.49,14.83,14.83,0,0,1,4.49,10.87v14a14.8,14.8,0,0,1-4.49,10.86,14.76,14.76,0,0,1-10.86,4.49H47.92V58.52H38.13Zm9.79,19.54h65.61a5.6,5.6,0,0,0,5.56-5.56v-14a5.36,5.36,0,0,0-1.64-3.93,5.32,5.32,0,0,0-3.92-1.63h-60a5.58,5.58,0,0,0-5.56,5.56Z"/><path class="cls-2" d="M146.33,43.17a5.58,5.58,0,0,0,5.56,5.56h60a5.58,5.58,0,0,0,5.56-5.56V1.74h9.79V43.17a15.33,15.33,0,0,1-15.35,15.35h-60a15.33,15.33,0,0,1-15.36-15.35V1.74h9.8Z"/><path class="cls-2" d="M328,58.52H250.29a15.33,15.33,0,0,1-15.36-15.35V17.05a14.77,14.77,0,0,1,4.49-10.82,14.77,14.77,0,0,1,10.87-4.54H328v9.8H250.29a5.57,5.57,0,0,0-5.56,5.56V43.17a5.58,5.58,0,0,0,5.56,5.56H328Z"/><path class="cls-2" d="M390.72,25.31,423.07,52l-6.23,7.55L381,30l-35.56,17V58.47h-9.79V1.69h9.79V36.07l73.31-35L423,9.91Z"/><path class="cls-2" d="M126.48,78.35H54.81a12,12,0,0,0-1.94.25,8.2,8.2,0,0,0-2.29.92q-2.65,1.74-2.65,5.66a7.21,7.21,0,0,0,.25,1.94,6.07,6.07,0,0,0,.92,2.3q1.73,2.65,5.66,2.65h56.63a16.74,16.74,0,0,1,10.81,3.78c3.88,3.06,6.23,9.79,5.07,13.37-.48,1.49-5.86,1.84-12.29,7.25-3.78,3.18-19.36-.36-31.25,8.91H39.66v-9.79h71.73a7.54,7.54,0,0,0,6.1-3.3c.44-.65.32-.77.53-1.65a9,9,0,0,0,.2-1.89c0-2.65-.88-4.56-2.65-5.71a7.34,7.34,0,0,0-2.25-.92,11.59,11.59,0,0,0-1.93-.25H54.76q-8.26,0-12.9-5.82a16.89,16.89,0,0,1-3.73-10.82q0-8.31,5.82-12.9a16.86,16.86,0,0,1,10.81-3.78h71.72Z"/><path class="cls-2" d="M217.69,68.61h9.8v56.77h-9.8V101.87H143.93v5.91l-9.53,0-.26-39.2h9.79V92.07h73.76Z"/><path class="cls-2" d="M325.89,110a15.33,15.33,0,0,1-15.36,15.35h-60A15.33,15.33,0,0,1,235.14,110V83.91A15.42,15.42,0,0,1,250.5,68.55h60a15.42,15.42,0,0,1,15.36,15.36Zm-9.8-26.12a5.57,5.57,0,0,0-5.56-5.56h-60a5.58,5.58,0,0,0-5.57,5.56V110a5.6,5.6,0,0,0,5.57,5.56h60a5.58,5.58,0,0,0,5.56-5.56Z"/><path class="cls-2" d="M380.57,78.35h-47v-9.8H437.35v9.8h-47v47h-9.8Z"/><path class="cls-3" d="M389.47,135.64c6.82.61,15.06,4.81,19.42,7.35,9.51,5.54,20,14.14,25.72,18.85,9.06,7.48,22.68,20,26.43,31.79a14.12,14.12,0,0,1,.49,2.35c.28,2.62-.23,3.75-1.53,4.25-4.91,1.87-13.57-.8-18.06-2.52-12.82-5-27.07-14.71-35.1-21.23-8.21-6.35-25.74-23.78-26.43-33.87C380.06,137.6,382.47,135,389.47,135.64Zm67.35,61.3a45.86,45.86,0,0,1-16-4.12c-16.44-7-53.92-36.57-56.8-51.27a3.56,3.56,0,0,1,0-1.82,6.42,6.42,0,0,0,.37-1.73c0-.17-.27-.28-.47-.19-4.92,2.08-.7,10,3,15.46,3,5.74,14,17,27.17,27,8.4,6.35,29.25,19.09,41.29,19.23C462.38,199.19,458.53,197,456.82,196.94Z"/><path class="cls-4" d="M121.37,118.08l4,2.35-6.4-1.26c-11.05-2.54-32.49,3-39.66,19.69-5.84,13.59-4.66,26.36,2.81,37.2l.77,2.17-1.1-.69c-3.65-4.35-7.66-12.21-8.42-17.45l-.27-1.94-14.43-.37-39.67-1,41.1-1,12.42-.35.58-9.23L0,142.43H74s.37-1.12.59-1.76C80.9,121.67,103.73,111.58,121.37,118.08Z"/><path class="cls-4" d="M404.85,178.23l-1.41.49L392.91,192l9.4-14.93-.19-1.07c-2.14-1.81-4-3.49-5.48-5-8.65-8.53-18.21-21.18-17.42-29.91-.06-.48-.06-.51-.06-.51h-1.72l-177.67,1.15-4.26.06-4.31-2.56-5.94-3.54-2.52-1.48-2.94-5.92c-6.58-13.22-23.8-21.11-40.3-21.11L129,109.35l10.62.09c11.84.6,31,4.73,36.42,17.92l2.1,5.06-3.08-.29c-3.87-.36-9.53-1.31-16.58-.6l-5,1.69,5.52-.46c15.81-.33,35.13,7.82,43.44,25.29l2.9,7.48-3.22.08-39.37.86L364,169.24a23.47,23.47,0,0,0,1.75,6.66l1.49,3.67,5.19.56c6,.64,15.06,1.14,15.06,1.14H151.66s45.65.29,81.38.92c30.14.53,83.72,2.72,128,4.42l11.22.43,2.24,3.1c4.6,6.36,12.29,12.38,17.38,17,.67.61.69.64.69.64a14.33,14.33,0,0,0,2.58.39L423.87,210l-15.38-.14L305.17,209l0-.4a70.66,70.66,0,0,0-.78-7.12l-2.24-4.61,1.54,7c2.29,25.16-29.58,45.59-52.25,21.71l-1.25-1.36s.61,1.26,1.47,2.74a40.32,40.32,0,0,0,9.1,9.75l-1.12.1c-20.79,3.67-53.75-3.89-58.5-38.54l-1.28-6.37-.09,8a42.43,42.43,0,0,0,3.2,13.06c.22.68.52,1.56.52,1.56H86.77l51.54,1.23,60.35,1.43,5.55.13,4.7,6.6c5.14,7.22,12.83,11.9,21.28,14.57,12.78,4.46,30.4,2.73,35.22.09l.66,0,.75.05c13.22,2.56,27-.37,35.18-15.5.46-.84.9-1.72,1.35-2.63a1.54,1.54,0,0,1,.17-.19s82.09,2.62,117.2,3.16l12.62.19c8.29.12,11.28-2.92,16.77-9.85,4-5,8.58-11.34,8.58-11.34h-.39a1.9,1.9,0,0,1-.79.32c-11.22.88-26.11-6.27-38.8-14.54l-1.76.61-10.53,13.25,9.4-14.94-.18-1c-1.37-.94-2.71-1.89-4-2.83l-15.2,16.76,12.1-19.07C407.25,180.14,406,179.17,404.85,178.23Zm27.53,41.45L418,220.1l-98.21-1.93,87.2-.42Zm-34.28-7.89,2.43,1.49a20.66,20.66,0,0,0,2.11,1.07l2.43,1.13h-99.9v-4.62l2.54-.06,79.45.87ZM381,164.62l-13.87.23-152.84.55c-2.54.07-4.37.15-4.37.15s0-.34-.23-1.37c-.55-3.35-5.87-13.39-9.35-16.73-.81-.77-1.43-1.33-1.43-1.33l174,2.8-7.64,10.34-.53.74-128,.46,135.74,2.3a3.56,3.56,0,0,0,2.21.8c2,.22,6.29.14,6.29.14Zm-4.6-21L373.64,147l-130.93-2.37Z"/></g></g></svg>